<svg width="35" height="35" viewBox="0 0 35 35" fill="none" xmlns="http://www.w3.org/2000/svg">
<g clip-path="url(#clip0)">
<path d="M32.0283 20.9572C31.7453 20.2573 30.9484 19.919 30.2484 20.2021C29.5483 20.4851 29.2102 21.282 29.4932 21.9821L31.1034 25.9651L26.3212 23.857C25.975 23.7044 25.581 23.702 25.2331 23.8505C23.5988 24.5478 21.8479 24.9014 20.0293 24.9014C12.7099 24.9014 7.793 19.1705 7.793 13.8179C7.793 7.70641 13.2822 2.73437 20.0293 2.73437C26.7764 2.73437 32.2656 7.70641 32.2656 13.8179C32.2656 14.2947 32.2212 14.8656 32.1439 15.3842C32.0324 16.131 32.5475 16.8267 33.2943 16.9381C34.0412 17.0498 34.7369 16.5345 34.8483 15.7876C34.9461 15.1321 35 14.4325 35 13.8179C35 10.1039 33.4273 6.61909 30.5715 4.00537C27.7495 1.42249 24.0055 0 20.0293 0C16.0531 0 12.3092 1.42249 9.48715 4.0053C6.93516 6.341 5.40883 9.3726 5.11277 12.6415C1.90282 14.7672 4.55827e-05 18.1734 4.55827e-05 21.8425C4.55827e-05 24.1344 0.722124 26.3091 2.09662 28.1806L0.0997134 33.1203C-0.108851 33.6362 0.0160416 34.227 0.415601 34.6143C0.675982 34.8668 1.01908 35 1.3675 35C1.55365 34.9999 1.74136 34.962 1.91868 34.8838L7.67652 32.3456C9.12491 32.8848 10.656 33.1577 12.2363 33.1577C12.2705 33.1577 12.304 33.1551 12.3376 33.1526C14.6233 33.1353 16.8455 32.5341 18.7701 31.409C20.4939 30.4011 21.912 29.0165 22.9061 27.3814C23.8768 27.2071 24.8255 26.9438 25.7463 26.5918L33.0813 29.8252C33.2587 29.9033 33.4463 29.9414 33.6325 29.9414C33.9809 29.9414 34.324 29.8082 34.5844 29.5557C34.984 29.1684 35.1089 28.5777 34.9003 28.0617L32.0283 20.9572ZM12.2364 30.4199C12.2178 30.4199 12.1996 30.4219 12.181 30.4227C10.785 30.4156 9.44135 30.1412 8.18648 29.6058C7.8386 29.4572 7.44464 29.4596 7.09847 29.6123L3.89673 31.0236L4.92957 28.4687C5.12049 27.9964 5.03293 27.457 4.70248 27.0694C3.41493 25.5588 2.73442 23.7515 2.73442 21.8425C2.73442 19.6577 3.65351 17.5875 5.26159 16.0179C5.76225 18.7471 7.1749 21.3579 9.30586 23.4088C11.9576 25.9609 15.4651 27.4393 19.2525 27.6173C17.4744 29.3677 14.9298 30.4199 12.2364 30.4199Z" fill="#DA867B"/>
<path d="M19.9619 15.2441C20.717 15.2441 21.3291 14.632 21.3291 13.8769C21.3291 13.1219 20.717 12.5098 19.9619 12.5098C19.2068 12.5098 18.5947 13.1219 18.5947 13.8769C18.5947 14.632 19.2068 15.2441 19.9619 15.2441Z" fill="#DA867B"/>
<path d="M25.4297 15.2441C26.1848 15.2441 26.7969 14.632 26.7969 13.8769C26.7969 13.1219 26.1848 12.5098 25.4297 12.5098C24.6746 12.5098 24.0625 13.1219 24.0625 13.8769C24.0625 14.632 24.6746 15.2441 25.4297 15.2441Z" fill="#DA867B"/>
<path d="M14.4932 15.2441C15.2482 15.2441 15.8603 14.632 15.8603 13.8769C15.8603 13.1219 15.2482 12.5098 14.4932 12.5098C13.7381 12.5098 13.126 13.1219 13.126 13.8769C13.126 14.632 13.7381 15.2441 14.4932 15.2441Z" fill="#DA867B"/>
</g>
<defs>
<clipPath id="clip0">
<rect width="35" height="35" fill="white"/>
</clipPath>
</defs>
</svg>
