<svg width="22" height="22" viewBox="0 0 22 22" fill="none" xmlns="http://www.w3.org/2000/svg">
<path d="M11 0C4.93475 0 0 4.93449 0 11C0 17.0655 4.93475 22 11 22C17.0655 22 22 17.0655 22 11C22 4.93449 17.0653 0 11 0ZM11 20.3942C5.82012 20.3942 1.60583 16.1799 1.60583 11C1.60583 5.82012 5.82012 1.60583 11 1.60583C16.1799 1.60583 20.3942 5.82007 20.3942 10.9997C20.3942 16.1799 16.1799 20.3942 11 20.3942Z" fill="white"/>
<path d="M14.7475 11H11.2682V6.18243C11.2682 5.73895 10.9087 5.37952 10.4653 5.37952C10.0218 5.37952 9.66235 5.73895 9.66235 6.18243V11.8029C9.66235 12.2464 10.0218 12.6058 10.4653 12.6058H14.7475C15.191 12.6058 15.5504 12.2464 15.5504 11.8029C15.5504 11.3594 15.191 11 14.7475 11Z" fill="white"/>
</svg>
