<svg width="35" height="35" viewBox="0 0 35 35" fill="none" xmlns="http://www.w3.org/2000/svg">
<path d="M15.165 28.7284C8.19456 28.4346 2.73437 22.7346 2.73437 15.7519C2.73437 8.5902 8.5609 2.76367 15.7226 2.76367C21.7616 2.76367 27.0939 7.03537 28.4016 12.9207C28.5654 13.6578 29.2955 14.1225 30.0328 13.9588C30.7699 13.795 31.2347 13.0647 31.0709 12.3276C30.3073 8.89146 28.3737 5.77052 25.6262 3.53982C22.8378 1.27603 19.3206 0.0292969 15.7226 0.0292969C11.5229 0.0292969 7.57468 1.66472 4.60502 4.63432C1.63543 7.60398 0 11.5522 0 15.7519C0 19.8343 1.5575 23.7031 4.38545 26.6455C7.2052 29.5794 10.9925 31.2894 15.0498 31.4604C15.0695 31.4612 15.0889 31.4616 15.1084 31.4616C15.837 31.4616 16.4424 30.8868 16.4734 30.152C16.5053 29.3976 15.9194 28.7602 15.165 28.7284Z" fill="#5B7DAE"/>
<path d="M15.7226 5.50806C14.9675 5.50806 14.3554 6.12015 14.3554 6.87524V15.1856L9.93855 19.6025C9.4046 20.1364 9.4046 21.002 9.93855 21.536C10.2055 21.8029 10.5554 21.9364 10.9053 21.9364C11.2552 21.9364 11.6051 21.8029 11.872 21.536L16.6894 16.7186C16.9458 16.4623 17.0898 16.1145 17.0898 15.7519V6.87524C17.0898 6.12015 16.4777 5.50806 15.7226 5.50806Z" fill="#5B7DAE"/>
<path d="M32.1873 17.006C30.7618 16.4242 28.896 16.1038 26.9336 16.1038C24.9712 16.1038 23.1054 16.4242 21.6799 17.006C19.2326 18.0049 18.8672 19.4393 18.8672 20.2053V30.8694C18.8672 31.6355 19.2326 33.0698 21.6799 34.0686C23.1054 34.6504 24.9712 34.9709 26.9336 34.9709C28.896 34.9709 30.7618 34.6504 32.1873 34.0686C34.6345 33.0698 35 31.6354 35 30.8694V20.2053C35 19.4392 34.6345 18.0049 32.1873 17.006ZM32.2656 30.826C32.0397 31.2464 30.2016 32.2365 26.9336 32.2365C23.6655 32.2365 21.8274 31.2464 21.6016 30.826V28.635C21.6279 28.646 21.653 28.6573 21.6799 28.6683C23.1054 29.2501 24.9712 29.5705 26.9336 29.5705C27.4069 29.5705 27.8807 29.5518 28.3418 29.5148C29.0944 29.4545 29.6556 28.7953 29.5952 28.0426C29.5348 27.2899 28.8766 26.729 28.123 26.7892C27.7344 26.8204 27.3342 26.8362 26.9336 26.8362C23.6646 26.8362 21.8266 25.8457 21.6016 25.4255V23.3714C21.6279 23.3825 21.653 23.3937 21.6799 23.4047C23.1054 23.9865 24.9712 24.307 26.9336 24.307C27.4069 24.307 27.8807 24.2883 28.3418 24.2513C29.0944 24.1909 29.6556 23.5318 29.5952 22.7791C29.5348 22.0264 28.8766 21.4654 28.123 21.5257C27.7344 21.5568 27.3342 21.5727 26.9336 21.5727C23.7725 21.5727 21.9497 20.6465 21.6293 20.2054C21.9502 19.7643 23.7731 18.8383 26.9336 18.8383C30.2016 18.8383 32.0397 19.8284 32.2656 20.2489V30.826Z" fill="#5B7DAE"/>
</svg>
