<svg width="22" height="22" viewBox="0 0 22 22" fill="none" xmlns="http://www.w3.org/2000/svg">
<path d="M16.4927 7.38365C16.1541 7.02658 15.5895 7.01086 15.2319 7.35035L9.53806 12.7502L6.82226 9.96182C6.4783 9.60892 5.91433 9.60119 5.56113 9.94519C5.20823 10.2889 5.20079 10.8534 5.54446 11.2063L8.87419 14.625C9.04869 14.8042 9.28059 14.8946 9.5131 14.8946C9.7337 14.8946 9.9543 14.8131 10.127 14.6499L16.4595 8.64453C16.8168 8.30559 16.8319 7.74103 16.4927 7.38365Z" fill="#466DA6"/>
<path d="M11 0C4.93453 0 0 4.93453 0 11C0 17.0655 4.93453 22 11 22C17.0655 22 22 17.0655 22 11C22 4.93453 17.0655 0 11 0ZM11 20.2162C5.9183 20.2162 1.78376 16.082 1.78376 11C1.78376 5.9183 5.91826 1.78376 11 1.78376C16.082 1.78376 20.2162 5.91826 20.2162 11C20.2162 16.082 16.082 20.2162 11 20.2162Z" fill="#466DA6"/>
</svg>
