<svg width="7" height="14" viewBox="0 0 7 14" fill="none" xmlns="http://www.w3.org/2000/svg">
<path d="M3.5 12.0209C2.303 12.0209 1.33 11.1206 1.33 10.0129V7.42199H1.8359e-07L3.05981e-07 10.0129C3.46556e-07 10.8719 0.368749 11.6957 1.02513 12.303C1.6815 12.9104 2.57174 13.2516 3.5 13.2516C4.42826 13.2516 5.3185 12.9104 5.97487 12.303C6.63125 11.6957 7 10.8719 7 10.0129V7.42199H5.67V10.0129C5.67 11.1206 4.697 12.0209 3.5 12.0209ZM4.2 9.3652L4.2 4.1833H2.8L2.8 9.3652H4.2ZM0 3.53556L1.22394e-07 6.12651H1.33L1.33 3.53556C1.33 2.42793 2.303 1.52758 3.5 1.52758C4.697 1.52758 5.67 2.42793 5.67 3.53556V6.12651H7V3.53556C7 2.67661 6.63125 1.85284 5.97487 1.24546C5.3185 0.638093 4.42826 0.296875 3.5 0.296875C2.57174 0.296875 1.6815 0.638093 1.02513 1.24546C0.368749 1.85284 -4.05741e-08 2.67661 0 3.53556Z" fill="#A2B5D1"/>
</svg>
